<svg width="22" height="25" fill="none" xmlns="http://www.w3.org/2000/svg"><g filter="url(#a)"><mask id="b" maskUnits="userSpaceOnUse" x="3" y="2" width="16" height="19" fill="#000"><path fill="#fff" d="M3 2h16v19H3z"/><path fill-rule="evenodd" clip-rule="evenodd" d="m7.84 13-.9-1.35a2.27 2.27 0 0 0-2.87-.76l.23-.12a.57.57 0 0 0-.26.7l1.22 3.18c.2.5.7 1.21 1.1 1.57 0 0 2.48 2.04 2.48 2.81V20h4l1-2 1 2h1v-.97c0-.77 1.5-3.18 1.5-3.18.28-.47.51-1.3.51-1.84V9.97a1.69 1.69 0 0 0-1.71-1.62.83.83 0 0 0-.85.81v.33c0-.9-.76-1.62-1.7-1.62a.83.83 0 0 0-.84.8V9c0-.9-.76-1.62-1.7-1.62a.83.83 0 0 0-.85.81v.33c0-.15-.01-.26-.04-.35L9.9 4c-.04-.56-.51-1-1.06-1a1 1 0 0 0-1 1v9Zm7.01-1h1v4h-1v-4Zm-2 0h1v4h-1v-4Zm-2 0h1v4h-1v-4Z"/></mask><path fill-rule="evenodd" clip-rule="evenodd" d="m7.84 13-.9-1.35a2.27 2.27 0 0 0-2.87-.76l.23-.12a.57.57 0 0 0-.26.7l1.22 3.18c.2.5.7 1.21 1.1 1.57 0 0 2.48 2.04 2.48 2.81V20h4l1-2 1 2h1v-.97c0-.77 1.5-3.18 1.5-3.18.28-.47.51-1.3.51-1.84V9.97a1.69 1.69 0 0 0-1.71-1.62.83.83 0 0 0-.85.81v.33c0-.9-.76-1.62-1.7-1.62a.83.83 0 0 0-.84.8V9c0-.9-.76-1.62-1.7-1.62a.83.83 0 0 0-.85.81v.33c0-.15-.01-.26-.04-.35L9.9 4c-.04-.56-.51-1-1.06-1a1 1 0 0 0-1 1v9Zm7.01-1h1v4h-1v-4Zm-2 0h1v4h-1v-4Zm-2 0h1v4h-1v-4Z" fill="#fff"/><path d="m7.84 13-.84.55 1.84 2.8V13h-1Zm-.9-1.35.85-.55-.84.55Zm-2.9-.18-.94.36.94-.36Zm1.22 3.18.94-.36-.94.36Zm1.1 1.57-.65.76h.01V17l.65-.77ZM8.85 20h-1v1h1v-1Zm4 0v1h.61l.28-.55-.9-.45Zm1-2 .89-.45-.9-1.79-.89 1.8.9.44Zm1 2-.9.45.28.55h.62v-1Zm1 0v1h1v-1h-1Zm1.5-4.15.85.53.01-.02-.86-.5Zm.51-5.88h1v-.02l-1 .02Zm-7.7-1.8-1 .06.02.13.04.12.95-.31ZM9.9 4l-1 .06 1-.06ZM7.84 4h-1 1Zm8.01 8h1v-1h-1v1Zm0 4v1h1v-1h-1Zm-1 0h-1v1h1v-1Zm-1-4h1v-1h-1v1Zm0 4v1h1v-1h-1Zm-1 0h-1v1h1v-1Zm-1-4h1v-1h-1v1Zm0 4v1h1v-1h-1Zm-1 0h-1v1h1v-1Zm-2.18-3.55L7.8 11.1 6.1 12.2 7 13.54l1.67-1.1ZM7.8 11.1A3.27 3.27 0 0 0 3.6 10l.91 1.78a1.28 1.28 0 0 1 1.6.41l1.67-1.1Zm-3.27.68.23-.12-.91-1.78-.23.12.91 1.78Zm-.68-1.9a1.57 1.57 0 0 0-.74 1.95l1.87-.72c.04.12.03.23 0 .31a.45.45 0 0 1-.22.24l-.91-1.78Zm-.74 1.95 1.23 3.18 1.87-.72-1.23-3.18-1.87.72Zm1.23 3.18c.25.65.84 1.5 1.38 1.97l1.31-1.51a3.8 3.8 0 0 1-.82-1.18L4.33 15Zm2.04 1.21-.64.77a2.64 2.64 0 0 1 .1.08 21.98 21.98 0 0 1 1.07.98 8.77 8.77 0 0 1 .94 1.1c.04.08 0 .02 0-.12h2c0-.34-.13-.62-.22-.8-.1-.2-.24-.4-.38-.57-.27-.36-.62-.72-.94-1.04a22.3 22.3 0 0 0-1.26-1.14L7 15.46v-.01l-.64.77Zm1.47 2.81V20h2v-.97h-2Zm1 1.97h4v-2h-4v2Zm4.89-.55 1-2-1.79-.9-1 2 1.79.9Zm-.79-2 1 2 1.79-.9-1-2-1.79.9Zm1.9 2.55h1v-2h-1v2Zm2-1v-.97h-2V20h2Zm0-.97c0 .04 0-.09.15-.43a25.15 25.15 0 0 1 1.14-2.12l.05-.08v-.01h.01l-.85-.54-.84-.53-.02.03a28.59 28.59 0 0 0-.77 1.33c-.2.36-.4.76-.56 1.14-.14.32-.31.8-.31 1.21h2Zm1.36-2.67a4.75 4.75 0 0 0 .65-2.35h-2c0 .15-.03.4-.11.68a2.9 2.9 0 0 1-.26.65l1.72 1.02Zm.65-2.35V9.97h-2v4.04h2Zm0-4.06a2.69 2.69 0 0 0-2.71-2.6v2c.42 0 .7.33.71.64l2-.04Zm-2.71-2.6c-.98 0-1.85.77-1.85 1.81h2c0 .07-.03.13-.06.16a.13.13 0 0 1-.1.03v-2Zm-1.85 1.81v.33h2v-.33h-2Zm2 .33a2.66 2.66 0 0 0-2.7-2.62v2c.43 0 .7.32.7.62h2Zm-2.7-2.62c-.97 0-1.84.76-1.84 1.8h2c0 .08-.03.13-.07.16a.13.13 0 0 1-.09.04v-2Zm-1.84 1.8V9h2v-.32h-2Zm2 .33a2.66 2.66 0 0 0-2.7-2.62v2c.43 0 .7.32.7.62h2Zm-2.7-2.62c-.98 0-1.85.77-1.85 1.81h2c0 .07-.03.13-.06.15a.13.13 0 0 1-.09.04v-2ZM9.2 8.2v.33h2v-.33h-2Zm2 .33c0-.21-.02-.44-.1-.66l-1.9.62v-.03.07h2Zm-.05-.41-.25-4.17-2 .12.26 4.17 2-.12Zm-.25-4.17A2.07 2.07 0 0 0 8.84 2v2l.04.02.02.04 2-.12ZM8.84 2a2 2 0 0 0-2 2h2V2Zm-2 2v4h2V4h-2Zm0 4v5h2V8h-2Zm8.01 5h1v-2h-1v2Zm0-1v4h2v-4h-2Zm1 3h-1v2h1v-2Zm0 1v-4h-2v4h2Zm-3-3h1v-2h-1v2Zm0-1v4h2v-4h-2Zm1 3h-1v2h1v-2Zm0 1v-4h-2v4h2Zm-3-3h1v-2h-1v2Zm0-1v4h2v-4h-2Zm1 3h-1v2h1v-2Zm0 1v-4h-2v4h2Z" fill="#000" fill-opacity=".8" mask="url(#b)"/></g><defs><filter id="a" x="0" y="0" width="21.85" height="25" filterUnits="userSpaceOnUse" color-interpolation-filters="sRGB"><feFlood flood-opacity="0" result="BackgroundImageFix"/><feColorMatrix in="SourceAlpha" values="0 0 0 0 0 0 0 0 0 0 0 0 0 0 0 0 0 0 127 0" result="hardAlpha"/><feOffset dy="1"/><feGaussianBlur stdDeviation="1.5"/><feColorMatrix values="0 0 0 0 0 0 0 0 0 0 0 0 0 0 0 0 0 0 0.2 0"/><feBlend in2="BackgroundImageFix" result="effect1_dropShadow_62863:1112"/><feBlend in="SourceGraphic" in2="effect1_dropShadow_62863:1112" result="shape"/></filter></defs></svg>